<svg version="1.1" id="Layer_1" xmlns="http://www.w3.org/2000/svg" xmlns:xlink="http://www.w3.org/1999/xlink" x="0px" y="0px"
	 width="100%" viewBox="0 0 500 159" enable-background="new 0 0 500 159" xml:space="preserve">
<path fill="#FFFFFF" opacity="1.000000" stroke="none" 
	d="
M337.000000,160.000000 
	C224.666702,160.000000 112.833412,160.000000 1.000090,160.000000 
	C1.000060,107.000061 1.000060,54.000118 1.000030,1.000133 
	C167.666550,1.000088 334.333099,1.000088 500.999725,1.000044 
	C500.999817,53.999863 500.999817,106.999725 500.999908,159.999786 
	C446.500000,160.000000 392.000000,160.000000 337.000000,160.000000 
M61.274616,73.857513 
	C80.317726,66.910095 99.426659,60.133335 118.336166,52.839550 
	C121.327744,51.685631 125.299744,48.398830 125.581650,45.753258 
	C126.502609,37.110302 125.927025,28.307880 125.927025,19.551498 
	C114.790123,23.570829 104.127365,27.383879 93.490067,31.266697 
	C79.247551,36.465492 64.947762,41.524982 50.866840,47.132153 
	C48.428299,48.103207 45.499092,51.369232 45.296051,53.785267 
	C44.604820,62.010532 45.031666,70.329758 45.031666,79.486488 
	C50.677284,77.484032 55.588604,75.742020 61.274616,73.857513 
M233.521545,84.000000 
	C230.690048,84.000763 227.854324,83.901909 225.027863,84.021591 
	C217.516312,84.339661 210.848282,89.184105 209.182541,96.054665 
	C208.298737,99.700020 207.664856,103.668251 208.143845,107.330406 
	C209.366791,116.680527 211.559677,124.325592 222.827545,125.581963 
	C233.025177,126.719017 243.452667,126.183311 253.756897,125.798531 
	C258.347015,125.627129 261.922028,120.896835 261.960968,116.067558 
	C262.068390,102.743652 262.094055,89.417336 261.957275,76.093971 
	C261.890381,69.575706 256.332764,61.905190 250.027481,61.303989 
	C237.897797,60.147438 225.666000,60.062096 213.288544,59.524311 
	C213.288544,64.610786 213.288544,68.521492 213.288544,72.747108 
	C215.177460,72.840202 216.798096,72.984535 218.419128,72.989136 
	C226.747040,73.012779 235.076233,73.083473 243.402527,72.965149 
	C247.454803,72.907578 249.265884,74.672264 249.002838,78.673630 
	C248.896881,80.285255 248.827362,81.899277 248.715240,84.000000 
	C243.762253,84.000000 239.137115,84.000000 233.521545,84.000000 
M349.509705,99.000000 
	C355.168732,98.999657 360.829193,99.080612 366.486389,98.978462 
	C373.627228,98.849533 377.777222,95.901146 379.519104,89.944946 
	C381.584686,82.881721 376.881744,70.348579 370.959839,65.927780 
	C362.055359,59.280510 352.018646,59.980701 342.117706,61.580070 
	C331.797180,63.247219 325.035889,69.906006 323.606598,80.218979 
	C322.467010,88.441490 322.964203,96.916183 323.047577,105.275810 
	C323.132751,113.813393 330.769287,123.840622 339.257446,124.814346 
	C349.752045,126.018242 360.423767,125.686485 371.019775,125.990646 
	C373.260040,126.054947 375.503723,126.000000 377.623901,126.000000 
	C377.623901,121.542900 377.623901,117.964622 377.623901,114.000000 
	C368.457977,114.000000 359.662689,114.000351 350.867432,113.999924 
	C339.156738,113.999359 336.187958,111.035896 336.066803,99.000000 
	C340.216919,99.000000 344.366486,99.000000 349.509705,99.000000 
M468.562561,60.000000 
	C463.451508,60.358635 458.261017,60.275925 453.247742,61.178059 
	C445.489594,62.574135 439.336304,71.735847 440.564331,79.898499 
	C442.104370,90.134834 448.658264,96.032341 458.852844,98.035583 
	C465.460907,99.334076 471.909119,101.472855 478.531982,102.660820 
	C483.599487,103.569794 483.189392,106.902290 482.978241,110.415703 
	C482.740997,114.363724 479.721863,113.972626 477.106506,113.983124 
	C466.944397,114.023903 456.782074,113.999901 446.619812,113.999992 
	C444.863068,114.000008 443.106293,114.000000 441.000488,114.000000 
	C441.000488,116.918655 441.121002,119.071938 440.972534,121.206512 
	C440.744141,124.490295 441.789642,126.100967 445.437714,126.054527 
	C457.264008,125.903969 469.095306,126.126945 480.920929,125.951843 
	C488.502808,125.839569 495.847076,119.511330 496.920624,112.232346 
	C498.178955,103.700516 495.377106,96.214722 488.059875,93.096138 
	C484.002930,91.367081 479.691162,90.172852 475.414551,89.037796 
	C469.535187,87.477364 463.555450,86.297409 457.665253,84.774521 
	C452.502319,83.439667 453.771301,79.055138 454.305237,75.749931 
	C454.493744,74.583008 457.670410,73.184311 459.523407,73.123184 
	C468.010468,72.843231 476.511963,73.000359 485.008270,72.999901 
	C493.225891,72.999466 493.051575,72.998596 493.077179,64.766907 
	C493.088989,60.969299 491.636658,59.825653 488.036896,59.944324 
	C481.879608,60.147297 475.710785,60.000126 468.562561,60.000000 
M193.665451,77.002243 
	C183.579651,77.002243 173.493851,77.002243 163.296753,77.002243 
	C163.296753,69.030884 163.296753,61.792530 163.296753,53.885212 
	C178.940613,53.885212 194.302063,53.885212 209.667816,53.885212 
	C209.667816,49.630547 209.667816,46.052109 209.667816,42.000023 
	C207.713486,42.000023 206.087097,42.000019 204.460709,42.000019 
	C190.311768,42.000011 176.162842,41.991425 162.013901,42.003365 
	C154.090164,42.010052 150.008774,46.037079 150.004395,53.875942 
	C149.991898,76.181320 149.994629,98.486725 150.011368,120.792099 
	C150.012573,122.395065 150.175537,123.997917 150.268921,125.703850 
	C154.631012,125.703850 158.539642,125.703850 163.121338,125.703850 
	C163.121338,113.392685 163.121338,101.358643 163.121338,89.000000 
	C172.930634,89.000000 182.069504,89.133316 191.198700,88.895073 
	C193.184372,88.843254 196.891846,87.184883 196.821243,86.735168 
	C196.308990,83.472885 198.414703,79.408287 193.665451,77.002243 
M424.000000,110.496445 
	C424.000000,115.581520 424.000000,120.666595 424.000000,125.630203 
	C428.445740,125.630203 432.023926,125.630203 435.974670,125.630203 
	C435.974670,108.804092 436.186249,92.340469 435.866241,75.887184 
	C435.745270,69.666489 428.000214,61.539471 422.224976,61.110668 
	C413.473541,60.460903 404.668396,59.870819 395.912079,60.131027 
	C386.378784,60.414326 382.873108,63.966709 382.970520,73.635757 
	C383.092926,85.792519 383.000000,97.951454 383.000000,110.109451 
	C383.000000,115.223892 383.000000,120.338333 383.000000,125.590347 
	C387.619690,125.590347 391.646362,125.590347 396.000000,125.590347 
	C396.000000,116.541702 396.000000,107.898933 396.000000,99.256165 
	C396.000000,90.656326 396.000000,82.056496 396.000000,73.730637 
	C396.971924,73.343964 397.269623,73.124283 397.569550,73.121223 
	C403.063080,73.065346 408.556885,73.014977 414.050659,73.004868 
	C421.944611,72.990341 423.924896,74.942383 423.984833,83.017044 
	C424.050354,91.843597 423.999908,100.671005 424.000000,110.496445 
M318.865479,61.991405 
	C317.161499,61.327686 315.449585,60.077721 313.754883,60.100636 
	C305.972412,60.205856 298.191193,60.600632 290.416290,61.017460 
	C281.462158,61.497520 272.459747,68.335083 269.573975,76.909767 
	C266.614349,85.703773 266.687134,94.614952 267.826294,103.810059 
	C268.914551,112.594261 273.197968,118.826118 280.569061,122.689262 
	C293.068268,129.240021 306.563049,124.637840 319.682495,126.163712 
	C319.682495,121.666054 319.682495,118.085480 319.682495,113.998909 
	C311.415741,113.998909 303.455261,114.110794 295.499268,113.970024 
	C285.989563,113.801765 281.354980,109.369797 281.027588,100.206520 
	C280.858978,95.487778 280.954315,90.757454 281.010040,86.033310 
	C281.113617,77.253822 285.449585,73.011818 294.267090,73.001938 
	C302.370239,72.992859 310.473389,73.000000 318.973938,73.000000 
	C318.973938,69.171616 318.973938,66.037323 318.865479,61.991405 
M95.226463,98.188309 
	C95.226463,88.689651 95.226463,79.190994 95.226463,69.431183 
	C80.498878,74.829567 65.177986,80.311295 50.001934,86.168320 
	C47.975922,86.950233 45.383095,89.557480 45.273712,91.447914 
	C44.769264,100.166512 45.051212,108.930611 45.051212,117.533119 
	C46.045429,117.733879 46.417446,117.938835 46.680626,117.843460 
	C58.615944,113.518372 70.586411,109.284004 82.444717,104.756027 
	C86.670143,103.142593 90.620850,100.809700 95.226463,98.188309 
M19.980963,58.613766 
	C23.756258,49.588257 29.248140,41.808990 37.155033,35.975170 
	C53.608932,23.835236 71.537750,20.767912 91.055489,27.420834 
	C92.755959,28.000465 94.912750,27.241385 96.857582,27.104128 
	C71.768532,13.119127 48.198322,19.076324 30.102034,33.721760 
	C9.400676,50.475498 -0.780914,78.111282 11.072901,105.848999 
	C17.211037,120.212135 27.045366,131.078995 41.009876,138.343613 
	C41.520973,133.932266 41.921917,130.471695 42.321644,127.021599 
	C18.604479,110.431030 10.262328,85.331917 19.980963,58.613766 
M95.881630,129.565781 
	C90.343224,131.070618 84.785362,132.509537 79.282211,134.133804 
	C78.129982,134.473892 76.627869,135.277374 76.241241,136.247589 
	C75.162155,138.955475 74.583641,141.862854 73.660950,145.225616 
	C76.360855,144.802887 78.929932,144.441635 81.483902,143.994125 
	C97.996796,141.100662 110.812004,132.318848 120.550056,118.954552 
	C130.505341,105.292160 134.789673,89.989784 131.851257,73.206665 
	C130.814423,67.284698 128.347809,61.597519 126.301178,55.886578 
	C126.029640,55.128857 124.377258,54.865986 123.364365,54.373940 
	C123.130188,55.350529 122.737373,56.323013 122.711975,57.305004 
	C122.691612,58.092522 123.042870,58.922150 123.355766,59.680901 
	C127.867767,70.622093 128.183990,81.842270 125.381767,93.191696 
	C121.328789,109.606934 111.187965,121.216766 95.881630,129.565781 
M54.706661,120.965843 
	C53.784962,121.318855 52.788345,121.546371 51.953442,122.044769 
	C45.454395,125.924423 43.165577,133.620193 46.543648,140.060547 
	C50.081093,146.804749 57.253162,149.818542 63.504971,147.187927 
	C70.988678,144.038940 74.289665,137.062881 72.181137,130.039276 
	C70.335045,123.889801 62.095352,118.242332 54.706661,120.965843 
z"/>
<path fill="#A6AFBA" opacity="1.000000" stroke="none" 
	d="
M60.887268,73.928757 
	C55.588604,75.742020 50.677284,77.484032 45.031666,79.486488 
	C45.031666,70.329758 44.604820,62.010532 45.296051,53.785267 
	C45.499092,51.369232 48.428299,48.103207 50.866840,47.132153 
	C64.947762,41.524982 79.247551,36.465492 93.490067,31.266697 
	C104.127365,27.383879 114.790123,23.570829 125.927025,19.551498 
	C125.927025,28.307880 126.502609,37.110302 125.581650,45.753258 
	C125.299744,48.398830 121.327744,51.685631 118.336166,52.839550 
	C99.426659,60.133335 80.317726,66.910095 60.887268,73.928757 
z"/>
<path fill="#A6AFBA" opacity="1.000000" stroke="none" 
	d="
M234.016754,84.000000 
	C239.137115,84.000000 243.762253,84.000000 248.715240,84.000000 
	C248.827362,81.899277 248.896881,80.285255 249.002838,78.673630 
	C249.265884,74.672264 247.454803,72.907578 243.402527,72.965149 
	C235.076233,73.083473 226.747040,73.012779 218.419128,72.989136 
	C216.798096,72.984535 215.177460,72.840202 213.288544,72.747108 
	C213.288544,68.521492 213.288544,64.610786 213.288544,59.524311 
	C225.666000,60.062096 237.897797,60.147438 250.027481,61.303989 
	C256.332764,61.905190 261.890381,69.575706 261.957275,76.093971 
	C262.094055,89.417336 262.068390,102.743652 261.960968,116.067558 
	C261.922028,120.896835 258.347015,125.627129 253.756897,125.798531 
	C243.452667,126.183311 233.025177,126.719017 222.827545,125.581963 
	C211.559677,124.325592 209.366791,116.680527 208.143845,107.330406 
	C207.664856,103.668251 208.298737,99.700020 209.182541,96.054665 
	C210.848282,89.184105 217.516312,84.339661 225.027863,84.021591 
	C227.854324,83.901909 230.690048,84.000763 234.016754,84.000000 
M249.000000,104.511520 
	C249.000000,101.770821 249.000000,99.030113 249.000000,96.000000 
	C242.198624,96.000000 236.235809,95.999107 230.273010,96.000229 
	C222.602631,96.001663 219.299637,100.112343 221.477936,107.644234 
	C222.151230,109.972290 224.168976,113.536041 225.818253,113.678764 
	C233.340927,114.329750 240.951538,113.964455 249.000000,113.964455 
	C249.000000,110.723358 249.000000,108.104561 249.000000,104.511520 
z"/>
<path fill="#A6AFBA" opacity="1.000000" stroke="none" 
	d="
M349.012878,99.000000 
	C344.366486,99.000000 340.216919,99.000000 336.066803,99.000000 
	C336.187958,111.035896 339.156738,113.999359 350.867432,113.999924 
	C359.662689,114.000351 368.457977,114.000000 377.623901,114.000000 
	C377.623901,117.964622 377.623901,121.542900 377.623901,126.000000 
	C375.503723,126.000000 373.260040,126.054947 371.019775,125.990646 
	C360.423767,125.686485 349.752045,126.018242 339.257446,124.814346 
	C330.769287,123.840622 323.132751,113.813393 323.047577,105.275810 
	C322.964203,96.916183 322.467010,88.441490 323.606598,80.218979 
	C325.035889,69.906006 331.797180,63.247219 342.117706,61.580070 
	C352.018646,59.980701 362.055359,59.280510 370.959839,65.927780 
	C376.881744,70.348579 381.584686,82.881721 379.519104,89.944946 
	C377.777222,95.901146 373.627228,98.849533 366.486389,98.978462 
	C360.829193,99.080612 355.168732,98.999657 349.012878,99.000000 
M336.012543,82.001144 
	C336.108795,83.575760 336.205048,85.150375 336.317505,86.990021 
	C345.794312,86.990021 354.742279,87.067642 363.684967,86.884926 
	C364.721527,86.863754 366.558044,85.454178 366.616302,84.593109 
	C367.031647,78.451958 361.915924,73.200150 355.641724,73.012131 
	C353.319824,72.942551 350.977539,73.179054 348.673279,72.965851 
	C342.244537,72.371033 338.381287,75.543076 336.012543,82.001144 
z"/>
<path fill="#A6AFBA" opacity="1.000000" stroke="none" 
	d="
M469.054688,60.000000 
	C475.710785,60.000126 481.879608,60.147297 488.036896,59.944324 
	C491.636658,59.825653 493.088989,60.969299 493.077179,64.766907 
	C493.051575,72.998596 493.225891,72.999466 485.008270,72.999901 
	C476.511963,73.000359 468.010468,72.843231 459.523407,73.123184 
	C457.670410,73.184311 454.493744,74.583008 454.305237,75.749931 
	C453.771301,79.055138 452.502319,83.439667 457.665253,84.774521 
	C463.555450,86.297409 469.535187,87.477364 475.414551,89.037796 
	C479.691162,90.172852 484.002930,91.367081 488.059875,93.096138 
	C495.377106,96.214722 498.178955,103.700516 496.920624,112.232346 
	C495.847076,119.511330 488.502808,125.839569 480.920929,125.951843 
	C469.095306,126.126945 457.264008,125.903969 445.437714,126.054527 
	C441.789642,126.100967 440.744141,124.490295 440.972534,121.206512 
	C441.121002,119.071938 441.000488,116.918655 441.000488,114.000000 
	C443.106293,114.000000 444.863068,114.000008 446.619812,113.999992 
	C456.782074,113.999901 466.944397,114.023903 477.106506,113.983124 
	C479.721863,113.972626 482.740997,114.363724 482.978241,110.415703 
	C483.189392,106.902290 483.599487,103.569794 478.531982,102.660820 
	C471.909119,101.472855 465.460907,99.334076 458.852844,98.035583 
	C448.658264,96.032341 442.104370,90.134834 440.564331,79.898499 
	C439.336304,71.735847 445.489594,62.574135 453.247742,61.178059 
	C458.261017,60.275925 463.451508,60.358635 469.054688,60.000000 
z"/>
<path fill="#A6AFBA" opacity="1.000000" stroke="none" 
	d="
M194.065765,77.012344 
	C198.414703,79.408287 196.308990,83.472885 196.821243,86.735168 
	C196.891846,87.184883 193.184372,88.843254 191.198700,88.895073 
	C182.069504,89.133316 172.930634,89.000000 163.121338,89.000000 
	C163.121338,101.358643 163.121338,113.392685 163.121338,125.703850 
	C158.539642,125.703850 154.631012,125.703850 150.268921,125.703850 
	C150.175537,123.997917 150.012573,122.395065 150.011368,120.792099 
	C149.994629,98.486725 149.991898,76.181320 150.004395,53.875942 
	C150.008774,46.037079 154.090164,42.010052 162.013901,42.003365 
	C176.162842,41.991425 190.311768,42.000011 204.460709,42.000019 
	C206.087097,42.000019 207.713486,42.000023 209.667816,42.000023 
	C209.667816,46.052109 209.667816,49.630547 209.667816,53.885212 
	C194.302063,53.885212 178.940613,53.885212 163.296753,53.885212 
	C163.296753,61.792530 163.296753,69.030884 163.296753,77.002243 
	C173.493851,77.002243 183.579651,77.002243 194.065765,77.012344 
z"/>
<path fill="#A6AFBA" opacity="1.000000" stroke="none" 
	d="
M424.000000,109.997246 
	C423.999908,100.671005 424.050354,91.843597 423.984833,83.017044 
	C423.924896,74.942383 421.944611,72.990341 414.050659,73.004868 
	C408.556885,73.014977 403.063080,73.065346 397.569550,73.121223 
	C397.269623,73.124283 396.971924,73.343964 396.000000,73.730637 
	C396.000000,82.056496 396.000000,90.656326 396.000000,99.256165 
	C396.000000,107.898933 396.000000,116.541702 396.000000,125.590347 
	C391.646362,125.590347 387.619690,125.590347 383.000000,125.590347 
	C383.000000,120.338333 383.000000,115.223892 383.000000,110.109451 
	C383.000000,97.951454 383.092926,85.792519 382.970520,73.635757 
	C382.873108,63.966709 386.378784,60.414326 395.912079,60.131027 
	C404.668396,59.870819 413.473541,60.460903 422.224976,61.110668 
	C428.000214,61.539471 435.745270,69.666489 435.866241,75.887184 
	C436.186249,92.340469 435.974670,108.804092 435.974670,125.630203 
	C432.023926,125.630203 428.445740,125.630203 424.000000,125.630203 
	C424.000000,120.666595 424.000000,115.581520 424.000000,109.997246 
z"/>
<path fill="#A6AFBA" opacity="1.000000" stroke="none" 
	d="
M318.919708,62.447212 
	C318.973938,66.037323 318.973938,69.171616 318.973938,73.000000 
	C310.473389,73.000000 302.370239,72.992859 294.267090,73.001938 
	C285.449585,73.011818 281.113617,77.253822 281.010040,86.033310 
	C280.954315,90.757454 280.858978,95.487778 281.027588,100.206520 
	C281.354980,109.369797 285.989563,113.801765 295.499268,113.970024 
	C303.455261,114.110794 311.415741,113.998909 319.682495,113.998909 
	C319.682495,118.085480 319.682495,121.666054 319.682495,126.163712 
	C306.563049,124.637840 293.068268,129.240021 280.569061,122.689262 
	C273.197968,118.826118 268.914551,112.594261 267.826294,103.810059 
	C266.687134,94.614952 266.614349,85.703773 269.573975,76.909767 
	C272.459747,68.335083 281.462158,61.497520 290.416290,61.017460 
	C298.191193,60.600632 305.972412,60.205856 313.754883,60.100636 
	C315.449585,60.077721 317.161499,61.327686 318.919708,62.447212 
z"/>
<path fill="#A6AFBA" opacity="1.000000" stroke="none" 
	d="
M94.961716,98.496765 
	C90.620850,100.809700 86.670143,103.142593 82.444717,104.756027 
	C70.586411,109.284004 58.615944,113.518372 46.680626,117.843460 
	C46.417446,117.938835 46.045429,117.733879 45.051212,117.533119 
	C45.051212,108.930611 44.769264,100.166512 45.273712,91.447914 
	C45.383095,89.557480 47.975922,86.950233 50.001934,86.168320 
	C65.177986,80.311295 80.498878,74.829567 95.226463,69.431183 
	C95.226463,79.190994 95.226463,88.689651 94.961716,98.496765 
z"/>
<path fill="#A6AFBA" opacity="1.000000" stroke="none" 
	d="
M19.904154,58.999283 
	C10.262328,85.331917 18.604479,110.431030 42.321644,127.021599 
	C41.921917,130.471695 41.520973,133.932266 41.009876,138.343613 
	C27.045366,131.078995 17.211037,120.212135 11.072901,105.848999 
	C-0.780914,78.111282 9.400676,50.475498 30.102034,33.721760 
	C48.198322,19.076324 71.768532,13.119127 96.857582,27.104128 
	C94.912750,27.241385 92.755959,28.000465 91.055489,27.420834 
	C71.537750,20.767912 53.608932,23.835236 37.155033,35.975170 
	C29.248140,41.808990 23.756258,49.588257 19.904154,58.999283 
z"/>
<path fill="#A6AFBA" opacity="1.000000" stroke="none" 
	d="
M96.202499,129.361755 
	C111.187965,121.216766 121.328789,109.606934 125.381767,93.191696 
	C128.183990,81.842270 127.867767,70.622093 123.355766,59.680901 
	C123.042870,58.922150 122.691612,58.092522 122.711975,57.305004 
	C122.737373,56.323013 123.130188,55.350529 123.364365,54.373940 
	C124.377258,54.865986 126.029640,55.128857 126.301178,55.886578 
	C128.347809,61.597519 130.814423,67.284698 131.851257,73.206665 
	C134.789673,89.989784 130.505341,105.292160 120.550056,118.954552 
	C110.812004,132.318848 97.996796,141.100662 81.483902,143.994125 
	C78.929932,144.441635 76.360855,144.802887 73.660950,145.225616 
	C74.583641,141.862854 75.162155,138.955475 76.241241,136.247589 
	C76.627869,135.277374 78.129982,134.473892 79.282211,134.133804 
	C84.785362,132.509537 90.343224,131.070618 96.202499,129.361755 
z"/>
<path fill="#A6AFBA" opacity="1.000000" stroke="none" 
	d="
M55.096329,120.882675 
	C62.095352,118.242332 70.335045,123.889801 72.181137,130.039276 
	C74.289665,137.062881 70.988678,144.038940 63.504971,147.187927 
	C57.253162,149.818542 50.081093,146.804749 46.543648,140.060547 
	C43.165577,133.620193 45.454395,125.924423 51.953442,122.044769 
	C52.788345,121.546371 53.784962,121.318855 55.096329,120.882675 
z"/>
<path fill="#FFFFFF" opacity="1.000000" stroke="none" 
	d="
M249.000000,104.998642 
	C249.000000,108.104561 249.000000,110.723358 249.000000,113.964455 
	C240.951538,113.964455 233.340927,114.329750 225.818253,113.678764 
	C224.168976,113.536041 222.151230,109.972290 221.477936,107.644234 
	C219.299637,100.112343 222.602631,96.001663 230.273010,96.000229 
	C236.235809,95.999107 242.198624,96.000000 249.000000,96.000000 
	C249.000000,99.030113 249.000000,101.770821 249.000000,104.998642 
z"/>
<path fill="#FFFFFF" opacity="1.000000" stroke="none" 
	d="
M336.041260,81.590111 
	C338.381287,75.543076 342.244537,72.371033 348.673279,72.965851 
	C350.977539,73.179054 353.319824,72.942551 355.641724,73.012131 
	C361.915924,73.200150 367.031647,78.451958 366.616302,84.593109 
	C366.558044,85.454178 364.721527,86.863754 363.684967,86.884926 
	C354.742279,87.067642 345.794312,86.990021 336.317505,86.990021 
	C336.205048,85.150375 336.108795,83.575760 336.041260,81.590111 
z"/>
</svg>