<svg version="1.1" id="Layer_1" xmlns="http://www.w3.org/2000/svg" xmlns:xlink="http://www.w3.org/1999/xlink" x="0px" y="0px"
	 width="100%" viewBox="0 0 800 800" enable-background="new 0 0 800 800" xml:space="preserve">
<path fill="#FFFFFF" opacity="1.000000" stroke="none" 
	d="
M529.000000,801.000000 
	C352.666656,801.000000 176.833328,801.000000 1.000000,801.000000 
	C1.000000,534.333313 1.000000,267.666656 1.000000,1.000000 
	C267.666656,1.000000 534.333313,1.000000 801.000000,1.000000 
	C801.000000,267.666656 801.000000,534.333313 801.000000,801.000000 
	C710.500000,801.000000 620.000000,801.000000 529.000000,801.000000 
M552.916870,560.750488 
	C553.855042,559.172852 554.793213,557.595276 556.535645,556.021484 
	C560.979370,555.052856 565.498230,553.036377 569.850220,553.348267 
	C577.361450,553.886597 584.733826,556.117615 592.228760,557.188538 
	C601.836304,558.561401 610.862732,556.650269 619.719299,551.064514 
	C622.302429,549.204468 624.885498,547.344482 628.664490,544.623291 
	C622.848999,539.273560 617.876648,534.699463 612.607239,529.526550 
	C609.142334,526.246948 605.636719,523.008545 602.248474,519.651550 
	C601.606445,519.015381 601.222717,517.942871 601.071716,517.014404 
	C599.843262,509.461487 598.698608,501.894928 597.384094,493.399811 
	C600.391785,491.092865 604.572754,487.885925 609.309753,484.252594 
	C595.252136,476.852722 581.677673,474.668701 567.367676,479.880096 
	C563.027344,481.460785 558.872375,483.665131 554.435120,484.835388 
	C549.036865,486.259094 543.345093,486.559692 537.932983,487.943420 
	C529.465698,490.108307 521.126526,492.774384 512.255371,494.726807 
	C510.684265,493.916077 509.194092,492.838043 507.530029,492.334442 
	C478.803986,483.640320 454.725433,468.393768 437.782715,442.334625 
	C437.966492,441.882446 438.041321,441.330719 438.350098,440.992767 
	C444.861725,433.866364 444.446777,426.657593 436.761871,420.764313 
	C433.284302,418.097504 429.268250,416.132904 425.765594,413.170227 
	C425.565643,411.245544 426.010193,408.898163 425.067413,407.460693 
	C413.948212,390.506958 402.621399,373.689392 391.618500,356.170288 
	C391.043915,354.125580 390.469330,352.080841 390.095337,349.112030 
	C388.343048,320.639221 387.143646,292.117981 384.653229,263.709869 
	C382.852173,243.165237 382.087463,243.232513 366.323547,230.236649 
	C366.201324,230.135864 366.139160,229.962173 366.001038,229.076111 
	C364.801208,228.120850 363.601379,227.165588 361.975677,226.143967 
	C361.633667,225.890396 361.291687,225.636826 360.987457,224.432266 
	C361.248077,221.905640 361.435028,219.368546 361.791687,216.855560 
	C362.100739,214.678101 362.602173,212.527939 363.870697,210.178986 
	C365.615845,210.200165 367.360992,210.221344 369.583008,210.655624 
	C371.891235,209.930099 374.199432,209.204590 376.701324,208.418198 
	C377.097809,199.024033 386.139404,192.893188 386.800598,183.106293 
	C387.884827,183.120285 388.969055,183.134293 390.376160,183.721481 
	C395.767090,186.484619 395.680389,180.162598 399.590790,178.990250 
	C397.118652,177.006104 395.366699,175.599991 393.283936,173.432907 
	C393.211945,172.612366 393.139923,171.791824 393.499786,170.631470 
	C393.037262,170.087219 392.574768,169.542969 391.925568,168.649734 
	C391.925568,168.649734 391.896667,168.255005 391.967133,167.342285 
	C392.582947,162.767517 393.198761,158.192764 393.859955,153.280853 
	C391.951324,153.173782 390.522400,153.093628 388.997284,152.204636 
	C389.033386,151.120712 389.069458,150.036774 389.647949,148.368668 
	C390.408203,144.015717 389.060669,139.145920 392.788483,135.482971 
	C392.890594,135.382645 392.204956,134.480637 392.074860,133.228043 
	C395.199341,126.266075 394.745911,123.649933 388.785248,119.061913 
	C370.780579,105.203384 349.858063,101.677650 327.980835,103.342773 
	C318.505920,104.063927 310.866821,109.581497 306.126068,118.194923 
	C300.200592,128.961014 299.444733,140.619293 300.443146,152.581711 
	C300.996063,159.206360 302.017822,165.928375 301.408783,172.474442 
	C300.821350,178.788071 300.230865,184.041260 308.722107,185.162842 
	C307.210785,188.440063 305.999176,191.067413 304.778076,193.715286 
	C310.037994,197.330414 315.396210,197.286652 321.514679,195.264755 
	C321.377197,197.937836 321.239716,200.610901 320.432220,202.937820 
	C318.998749,202.265579 317.565308,201.593353 315.618561,200.680405 
	C315.423279,202.653015 315.065765,203.940994 315.211304,205.169342 
	C316.182068,213.360825 315.168732,220.537704 306.929504,225.022415 
	C304.869202,226.143890 303.488953,228.584503 301.912750,230.514069 
	C293.295258,241.063644 287.386932,252.723267 287.062012,266.698761 
	C286.698456,282.334259 286.282532,297.968658 285.839447,313.602112 
	C285.556763,323.575623 285.142120,333.545410 284.859192,343.518890 
	C284.198822,366.796936 283.613953,390.077209 282.906921,413.353760 
	C282.820557,416.197266 283.861237,417.375519 286.753845,418.032928 
	C286.917908,429.693481 287.081970,441.354034 287.154724,453.932373 
	C287.775452,469.954407 288.396179,485.976440 288.896912,502.225220 
	C288.896912,502.225220 288.988617,502.464813 288.483673,502.988190 
	C283.582275,507.230316 278.296936,511.107697 273.853668,515.785034 
	C261.990692,528.272827 248.168488,537.933472 232.411789,544.582336 
	C215.281601,551.810730 197.827576,558.270569 180.538849,565.126282 
	C178.517548,565.927856 176.649384,567.115662 174.710220,568.124390 
	C174.982864,568.854004 175.255508,569.583618 175.528152,570.313232 
	C210.558273,569.480225 243.537033,561.474060 273.463745,541.402283 
	C272.968445,546.481934 272.775818,551.613708 271.911255,556.629700 
	C270.375336,565.541138 269.648926,574.786560 263.041840,581.985596 
	C260.129944,585.158447 257.544708,588.630249 254.645279,591.815369 
	C248.991302,598.026550 242.217667,602.120300 233.650879,603.151672 
	C232.303680,603.313782 230.629211,605.415588 230.096222,606.961853 
	C224.867004,622.132690 219.821365,637.367126 214.777359,652.601379 
	C210.981277,664.066467 207.207108,675.539856 203.602112,687.065552 
	C203.254501,688.176941 203.773239,690.033752 204.571579,690.951416 
	C209.423141,696.528442 221.962433,696.652771 225.705734,690.469604 
	C228.766464,685.414001 230.673645,679.373535 231.846420,673.520081 
	C234.418335,660.683350 236.716812,647.959106 243.536957,636.362671 
	C246.387314,631.516235 249.950836,629.676941 254.918808,629.046814 
	C257.053314,628.776184 259.174774,628.402832 261.162476,628.826172 
	C255.890671,643.420410 250.560333,657.994080 245.415741,672.633057 
	C244.714676,674.627930 244.941681,676.948975 244.602539,680.030151 
	C244.702820,686.024109 244.803116,692.018127 244.918854,698.623779 
	C245.273315,698.745300 245.627762,698.866760 246.908173,699.162170 
	C264.194092,699.184937 281.480042,699.188354 298.765839,699.250244 
	C301.536682,699.260193 304.847626,699.305481 305.054993,696.017456 
	C305.198425,693.743958 303.773071,690.039673 301.999268,689.205078 
	C293.835114,685.363586 285.302338,682.305664 277.349701,678.304565 
	C281.958221,678.856873 284.319000,676.665649 286.204071,672.466003 
	C290.828613,662.163269 296.032990,652.120728 301.716888,642.157959 
	C302.154449,642.839417 302.762390,643.465454 303.004639,644.210449 
	C308.953613,662.507080 317.574524,679.437683 328.629211,695.181702 
	C330.529633,697.888245 332.400055,699.371094 335.881531,699.233398 
	C342.525604,698.970642 349.199615,698.916382 355.837738,699.246643 
	C360.134491,699.460449 363.850739,699.055054 366.393829,695.999817 
	C365.862335,699.318909 367.947479,699.271851 370.326050,699.260376 
	C383.290619,699.197754 396.256012,699.284485 409.220398,699.206360 
	C414.679321,699.173523 420.136597,698.862488 426.558868,698.907654 
	C434.546875,698.947510 442.534851,699.008972 450.522888,699.020874 
	C457.895355,699.031860 460.943329,694.622925 457.826263,687.870728 
	C456.581085,685.173340 454.412109,682.757080 452.229706,680.665527 
	C446.241913,674.927002 447.167786,667.745422 448.681671,661.068420 
	C452.100128,645.991333 460.014191,632.863831 468.406464,620.091675 
	C471.072845,616.033630 474.324615,612.360168 477.710724,609.122314 
	C481.694275,616.795837 485.695679,624.460144 489.658051,632.144592 
	C500.629211,653.421753 511.541443,674.729614 522.640503,695.939819 
	C523.388733,697.369751 525.466492,698.938965 526.979065,698.994568 
	C535.128418,699.293701 543.298401,699.259155 551.450745,699.003723 
	C552.713257,698.964294 554.635376,697.421021 555.039001,696.178955 
	C557.684326,688.037537 554.008911,681.712524 545.418396,680.056396 
	C540.894165,679.184143 537.991394,677.217896 536.317078,672.876221 
	C529.805481,655.991211 522.437317,639.394287 516.854736,622.213562 
	C514.562378,615.158813 515.059509,606.784363 515.961548,599.209534 
	C517.094421,589.696777 519.945312,580.388611 522.686523,570.690491 
	C529.448730,567.834106 536.244263,565.052795 542.951172,562.072083 
	C544.777039,561.260681 546.336060,559.848816 548.665527,558.880615 
	C549.436096,559.310425 550.206726,559.740295 551.275940,560.578491 
	C551.596252,560.626343 551.916504,560.674194 552.916870,560.750488 
z"/>
<path fill="#E3D2C1" opacity="1.000000" stroke="none" 
	d="
M477.308533,608.510681 
	C474.324615,612.360168 471.072845,616.033630 468.406464,620.091675 
	C460.014191,632.863831 452.100128,645.991333 448.681671,661.068420 
	C447.167786,667.745422 446.241913,674.927002 452.229706,680.665527 
	C454.412109,682.757080 456.581085,685.173340 457.826263,687.870728 
	C460.943329,694.622925 457.895355,699.031860 450.522888,699.020874 
	C442.534851,699.008972 434.546875,698.947510 426.101929,698.380371 
	C425.384125,694.941650 425.123230,692.030212 425.152954,688.838379 
	C425.583740,687.254822 425.948273,685.931152 425.830627,684.651794 
	C423.930969,663.996887 424.160522,643.601074 431.090485,623.637512 
	C434.262421,614.499878 436.288208,604.964417 438.724792,596.009888 
	C429.843933,594.299438 421.593292,592.710449 413.052673,590.878662 
	C400.947083,584.929932 389.188751,579.100159 377.280426,573.594727 
	C373.779907,571.976379 369.854218,571.277710 365.799652,569.998657 
	C359.607452,571.203369 353.724548,572.509766 347.884216,573.984924 
	C346.869080,574.241272 345.788330,575.026489 345.152344,575.877258 
	C334.692566,589.869324 321.566315,600.862793 306.575684,610.252441 
	C292.229858,618.693726 277.134277,624.320618 261.302185,628.076172 
	C259.174774,628.402832 257.053314,628.776184 254.918808,629.046814 
	C249.950836,629.676941 246.387314,631.516235 243.536957,636.362671 
	C236.716812,647.959106 234.418335,660.683350 231.846420,673.520081 
	C230.673645,679.373535 228.766464,685.414001 225.705734,690.469604 
	C221.962433,696.652771 209.423141,696.528442 204.571579,690.951416 
	C203.773239,690.033752 203.254501,688.176941 203.602112,687.065552 
	C207.207108,675.539856 210.981277,664.066467 214.777359,652.601379 
	C219.821365,637.367126 224.867004,622.132690 230.096222,606.961853 
	C230.629211,605.415588 232.303680,603.313782 233.650879,603.151672 
	C242.217667,602.120300 248.991302,598.026550 254.645279,591.815369 
	C257.544708,588.630249 260.129944,585.158447 263.041840,581.985596 
	C269.648926,574.786560 270.375336,565.541138 271.911255,556.629700 
	C272.775818,551.613708 272.968445,546.481934 273.367249,540.825195 
	C273.848389,538.757690 274.482727,537.286377 274.993988,535.773499 
	C277.354065,528.789795 279.381348,521.674561 282.125885,514.846802 
	C283.872345,510.501953 286.665039,506.577667 288.988617,502.464813 
	C288.988617,502.464813 288.896912,502.225220 289.312103,502.167725 
	C298.382141,495.891357 307.326202,490.243286 318.327057,487.867676 
	C330.099152,485.570892 341.311218,486.182129 352.732971,488.218903 
	C370.138031,491.322662 387.714417,493.465515 405.620178,495.997070 
	C412.254608,496.626984 418.486847,497.276245 424.801483,498.392365 
	C424.892761,521.918945 424.859253,544.978943 425.000549,568.037842 
	C425.010620,569.675415 426.305389,571.305115 427.002808,572.938477 
	C428.314728,571.635193 429.626678,570.331909 431.247681,568.739319 
	C431.704529,566.646790 431.978241,564.843811 431.980804,563.040405 
	C432.011353,541.424866 432.001709,519.809387 432.433685,498.150391 
	C442.428070,498.410248 452.000183,499.123108 461.552399,498.916901 
	C474.557678,498.636169 487.547760,497.653809 500.903656,496.917053 
	C505.205841,497.204254 507.203857,499.091431 508.128967,503.227234 
	C511.011383,516.113770 517.027100,527.623779 525.952393,537.296753 
	C532.892456,544.818237 540.632812,551.601318 548.017517,558.712524 
	C546.336060,559.848816 544.777039,561.260681 542.951172,562.072083 
	C536.244263,565.052795 529.448730,567.834106 522.042053,570.959839 
	C517.144775,574.066162 512.845032,576.835632 508.649384,579.754822 
	C500.922943,585.130554 492.877289,590.145264 485.725159,596.207642 
	C482.069794,599.306091 480.061371,604.347473 477.308533,608.510681 
z"/>
<path fill="#6DB1D4" opacity="1.000000" stroke="none" 
	d="
M360.949677,225.383255 
	C361.291687,225.636826 361.633667,225.890396 362.317963,226.487671 
	C363.789825,227.828415 364.919373,228.825470 366.048950,229.822525 
	C366.139160,229.962173 366.201324,230.135864 366.323547,230.236649 
	C382.087463,243.232513 382.852173,243.165237 384.653229,263.709869 
	C387.143646,292.117981 388.343048,320.639221 389.660583,349.517395 
	C386.485382,345.465118 382.585754,341.338562 381.202057,336.493500 
	C374.658386,313.580994 365.991516,291.550262 355.493774,270.203979 
	C354.932739,269.063171 353.937622,268.135864 353.144562,267.109192 
	C352.718536,267.337067 352.292542,267.564941 351.866547,267.792816 
	C352.283264,269.283081 352.524475,270.851746 353.148651,272.249390 
	C355.250305,276.955536 357.815552,281.478546 359.613495,286.291992 
	C365.354462,301.661835 370.422241,317.295807 376.571503,332.495422 
	C379.892639,340.704498 384.861115,348.251038 389.186401,356.040955 
	C389.468781,356.549500 390.608368,356.582031 391.349243,356.835968 
	C402.621399,373.689392 413.948212,390.506958 425.067413,407.460693 
	C426.010193,408.898163 425.565643,411.245544 425.319275,413.573395 
	C419.853149,418.245178 414.833313,422.513794 409.492676,426.878448 
	C407.684631,427.937164 406.197388,428.899841 404.274689,430.144348 
	C400.406586,424.925171 396.695404,419.917694 392.937195,414.553802 
	C390.514801,410.261871 388.409729,406.130035 385.718567,402.423767 
	C371.907257,383.402832 356.688843,365.264771 344.406982,345.313171 
	C333.248383,327.186218 325.159058,307.160828 315.875458,287.895813 
	C313.871613,283.737488 312.547211,279.251770 310.909851,274.916870 
	C310.361359,275.061127 309.812866,275.205414 309.264404,275.349670 
	C309.509644,277.058594 309.414520,278.908325 310.053986,280.454163 
	C315.245850,293.004639 320.386169,305.582306 325.905731,317.989990 
	C334.911285,338.234009 347.008392,356.663391 360.122284,374.421448 
	C370.254913,388.142395 380.730164,401.610229 390.991089,415.572357 
	C389.172516,416.345367 387.415924,416.736633 385.211884,417.122437 
	C352.053375,417.120117 319.342316,417.123291 286.631256,417.126465 
	C283.861237,417.375519 282.820557,416.197266 282.906921,413.353760 
	C283.613953,390.077209 284.198822,366.796936 284.859192,343.518890 
	C285.142120,333.545410 285.556763,323.575623 285.839447,313.602112 
	C286.282532,297.968658 286.698456,282.334259 287.062012,266.698761 
	C287.386932,252.723267 293.295258,241.063644 301.912750,230.514069 
	C303.488953,228.584503 304.869202,226.143890 306.929504,225.022415 
	C315.168732,220.537704 316.182068,213.360825 315.211304,205.169342 
	C315.065765,203.940994 315.423279,202.653015 315.618561,200.680405 
	C317.565308,201.593353 318.998749,202.265579 320.832245,203.417603 
	C321.860779,204.646286 322.358582,205.588486 323.137390,206.115143 
	C334.732605,213.956375 346.364929,221.742676 358.468018,229.863678 
	C359.028320,228.166824 359.473480,226.818695 360.176758,225.453430 
	C360.606506,225.418610 360.778076,225.400940 360.949677,225.383255 
z"/>
<path fill="#905A64" opacity="1.000000" stroke="none" 
	d="
M286.692566,417.579712 
	C319.342316,417.123291 352.053375,417.120117 385.298950,417.523376 
	C388.416199,428.377838 390.989624,438.828156 393.583862,449.273315 
	C397.454193,464.856262 401.339264,480.435577 405.218018,496.016418 
	C387.714417,493.465515 370.138031,491.322662 352.732971,488.218903 
	C341.311218,486.182129 330.099152,485.570892 318.126404,487.617554 
	C313.632843,482.672241 309.642517,478.105103 305.911743,473.335022 
	C301.283325,467.417389 296.994080,461.231049 292.267517,455.396332 
	C291.216034,454.098267 288.951874,453.782562 287.246033,453.014587 
	C287.081970,441.354034 286.917908,429.693481 286.692566,417.579712 
z"/>
<path fill="#E4D2C2" opacity="1.000000" stroke="none" 
	d="
M512.733093,495.228119 
	C521.126526,492.774384 529.465698,490.108307 537.932983,487.943420 
	C543.345093,486.559692 549.036865,486.259094 554.435120,484.835388 
	C558.872375,483.665131 563.027344,481.460785 567.367676,479.880096 
	C581.677673,474.668701 595.252136,476.852722 609.309753,484.252594 
	C604.572754,487.885925 600.391785,491.092865 597.384094,493.399811 
	C598.698608,501.894928 599.843262,509.461487 601.071716,517.014404 
	C601.222717,517.942871 601.606445,519.015381 602.248474,519.651550 
	C605.636719,523.008545 609.142334,526.246948 612.383728,529.919312 
	C608.773987,538.047180 610.645569,543.747986 619.006836,551.166626 
	C610.862732,556.650269 601.836304,558.561401 592.228760,557.188538 
	C584.733826,556.117615 577.361450,553.886597 569.850220,553.348267 
	C565.498230,553.036377 560.979370,555.052856 555.828979,555.917786 
	C549.489319,551.196533 543.455811,546.983643 538.301819,541.882202 
	C525.207703,528.921753 515.344543,514.015991 512.733093,495.228119 
M581.601685,513.256836 
	C583.052734,517.108948 585.597717,515.851807 587.205139,513.881165 
	C588.312500,512.523376 588.129578,510.113281 588.523315,508.173492 
	C586.566467,508.724030 584.526428,509.091949 582.698181,509.924774 
	C582.063293,510.213959 581.953003,511.654572 581.601685,513.256836 
z"/>
<path fill="#93383F" opacity="1.000000" stroke="none" 
	d="
M320.908569,194.700653 
	C315.396210,197.286652 310.037994,197.330414 304.778076,193.715286 
	C305.999176,191.067413 307.210785,188.440063 308.722107,185.162842 
	C300.230865,184.041260 300.821350,178.788071 301.408783,172.474442 
	C302.017822,165.928375 300.996063,159.206360 300.443146,152.581711 
	C299.444733,140.619293 300.200592,128.961014 306.126068,118.194923 
	C310.866821,109.581497 318.505920,104.063927 327.980835,103.342773 
	C349.858063,101.677650 370.780579,105.203384 388.785248,119.061913 
	C394.745911,123.649933 395.199341,126.266075 391.689087,133.744110 
	C390.006378,135.523392 388.709381,136.786591 387.198914,137.691345 
	C375.517059,129.539246 368.872437,130.370193 359.763306,140.049835 
	C356.756653,143.244812 352.814484,145.559372 348.380951,148.987122 
	C348.380951,144.173492 348.380951,141.221130 348.380951,136.657883 
	C344.563599,139.393845 341.630737,140.947617 339.400177,143.197647 
	C332.774719,149.881042 331.061676,158.398514 330.789368,167.481918 
	C330.579010,174.499283 330.038147,181.490738 323.296112,186.104736 
	C322.285950,186.796082 322.507202,189.286835 322.087769,191.277359 
	C321.647369,192.639893 321.277954,193.670273 320.908569,194.700653 
z"/>
<path fill="#F4AD89" opacity="1.000000" stroke="none" 
	d="
M322.158783,190.945190 
	C322.507202,189.286835 322.285950,186.796082 323.296112,186.104736 
	C330.038147,181.490738 330.579010,174.499283 330.789368,167.481918 
	C331.061676,158.398514 332.774719,149.881042 339.400177,143.197647 
	C341.630737,140.947617 344.563599,139.393845 348.380951,136.657883 
	C348.380951,141.221130 348.380951,144.173492 348.380951,148.987122 
	C352.814484,145.559372 356.756653,143.244812 359.763306,140.049835 
	C368.872437,130.370193 375.517059,129.539246 387.199127,138.007629 
	C387.977112,142.105865 388.541351,145.529358 389.105591,148.952850 
	C389.069458,150.036774 389.033386,151.120712 388.798737,152.888672 
	C389.699005,158.466797 390.797821,163.360901 391.896667,168.255005 
	C391.896667,168.255005 391.925568,168.649734 392.028442,169.114166 
	C392.443481,170.042831 392.755707,170.507050 393.067902,170.971283 
	C393.139923,171.791824 393.211945,172.612366 393.328491,174.131165 
	C396.064880,179.118210 394.457458,181.691284 390.053284,183.148285 
	C388.969055,183.134293 387.884827,183.120285 386.050018,183.149689 
	C383.913666,185.273544 382.527893,187.353989 380.918182,189.770584 
	C379.103058,189.162994 376.972778,188.239075 374.746674,187.778809 
	C373.259827,187.471390 370.723663,187.267319 370.275238,188.003143 
	C369.481140,189.306122 369.228027,191.779251 369.978668,193.016068 
	C371.789307,195.999390 374.310272,198.551590 377.235168,202.119843 
	C374.768768,204.584305 371.937469,207.413406 369.106140,210.242523 
	C367.360992,210.221344 365.615845,210.200165 363.165833,210.160187 
	C361.423523,210.049515 360.386078,209.957611 358.927643,209.861557 
	C344.576447,207.040222 330.260132,204.965073 322.158783,190.945190 
M385.256989,145.025742 
	C380.633789,145.366791 376.164917,146.047333 373.162811,150.042557 
	C376.962708,150.260269 380.546692,149.985535 384.100250,149.491638 
	C386.817017,149.114029 387.932098,147.752487 385.256989,145.025742 
M383.120972,160.738464 
	C381.828033,159.537445 380.535126,158.336426 379.242218,157.135406 
	C378.450256,158.282425 376.921844,159.503616 377.028259,160.560150 
	C377.216980,162.434113 378.398041,164.208130 379.163910,166.023956 
	C380.497803,164.534348 381.831696,163.044724 383.120972,160.738464 
z"/>
<path fill="#B2A18B" opacity="1.000000" stroke="none" 
	d="
M477.509644,608.816528 
	C480.061371,604.347473 482.069794,599.306091 485.725159,596.207642 
	C492.877289,590.145264 500.922943,585.130554 508.649384,579.754822 
	C512.845032,576.835632 517.144775,574.066162 521.726196,571.110718 
	C519.945312,580.388611 517.094421,589.696777 515.961548,599.209534 
	C515.059509,606.784363 514.562378,615.158813 516.854736,622.213562 
	C522.437317,639.394287 529.805481,655.991211 536.317078,672.876221 
	C537.991394,677.217896 540.894165,679.184143 545.418396,680.056396 
	C554.008911,681.712524 557.684326,688.037537 555.039001,696.178955 
	C554.635376,697.421021 552.713257,698.964294 551.450745,699.003723 
	C543.298401,699.259155 535.128418,699.293701 526.979065,698.994568 
	C525.466492,698.938965 523.388733,697.369751 522.640503,695.939819 
	C511.541443,674.729614 500.629211,653.421753 489.658051,632.144592 
	C485.695679,624.460144 481.694275,616.795837 477.509644,608.816528 
z"/>
<path fill="#B3A28C" opacity="1.000000" stroke="none" 
	d="
M306.883728,610.125732 
	C321.566315,600.862793 334.692566,589.869324 345.152344,575.877258 
	C345.788330,575.026489 346.869080,574.241272 347.884216,573.984924 
	C353.724548,572.509766 359.607452,571.203369 365.743591,570.339722 
	C364.608276,573.324341 363.205261,575.808960 361.567749,578.495239 
	C358.259308,583.640991 355.097687,588.533081 352.128235,593.539124 
	C343.914795,607.385803 334.029999,620.387085 329.199951,635.983826 
	C327.517151,641.417908 326.385406,647.417847 326.796875,653.027710 
	C327.845428,667.323608 338.213898,674.124634 350.188110,678.698181 
	C356.817139,681.230164 362.884369,684.026184 366.592529,691.022217 
	C366.685425,692.713867 366.571503,693.971375 366.457581,695.228821 
	C363.850739,699.055054 360.134491,699.460449 355.837738,699.246643 
	C349.199615,698.916382 342.525604,698.970642 335.881531,699.233398 
	C332.400055,699.371094 330.529633,697.888245 328.629211,695.181702 
	C317.574524,679.437683 308.953613,662.507080 303.004639,644.210449 
	C302.762390,643.465454 302.154449,642.839417 301.429749,641.683716 
	C302.235077,637.228699 303.645172,633.302917 304.346832,629.254333 
	C305.444336,622.921814 306.062500,616.506165 306.883728,610.125732 
z"/>
<path fill="#7B4E56" opacity="1.000000" stroke="none" 
	d="
M306.575684,610.252441 
	C306.062500,616.506165 305.444336,622.921814 304.346832,629.254333 
	C303.645172,633.302917 302.235077,637.228699 301.073364,641.591553 
	C296.032990,652.120728 290.828613,662.163269 286.204071,672.466003 
	C284.319000,676.665649 281.958221,678.856873 276.738770,678.650024 
	C272.005463,678.334045 267.898315,677.279846 263.756439,677.118774 
	C259.370483,676.948181 254.944092,677.549988 250.550217,677.969788 
	C248.594406,678.156677 246.674957,678.724243 244.739014,679.119019 
	C244.941681,676.948975 244.714676,674.627930 245.415741,672.633057 
	C250.560333,657.994080 255.890671,643.420410 261.232330,628.451172 
	C277.134277,624.320618 292.229858,618.693726 306.575684,610.252441 
z"/>
<path fill="#B2A38E" opacity="1.000000" stroke="none" 
	d="
M288.736145,502.726501 
	C286.665039,506.577667 283.872345,510.501953 282.125885,514.846802 
	C279.381348,521.674561 277.354065,528.789795 274.993988,535.773499 
	C274.482727,537.286377 273.848389,538.757690 273.096619,540.575745 
	C243.537033,561.474060 210.558273,569.480225 175.528152,570.313232 
	C175.255508,569.583618 174.982864,568.854004 174.710220,568.124390 
	C176.649384,567.115662 178.517548,565.927856 180.538849,565.126282 
	C197.827576,558.270569 215.281601,551.810730 232.411789,544.582336 
	C248.168488,537.933472 261.990692,528.272827 273.853668,515.785034 
	C278.296936,511.107697 283.582275,507.230316 288.736145,502.726501 
z"/>
<path fill="#93383F" opacity="1.000000" stroke="none" 
	d="
M244.670776,679.574585 
	C246.674957,678.724243 248.594406,678.156677 250.550217,677.969788 
	C254.944092,677.549988 259.370483,676.948181 263.756439,677.118774 
	C267.898315,677.279846 272.005463,678.334045 276.514832,678.981018 
	C285.302338,682.305664 293.835114,685.363586 301.999268,689.205078 
	C303.773071,690.039673 305.198425,693.743958 305.054993,696.017456 
	C304.847626,699.305481 301.536682,699.260193 298.765839,699.250244 
	C281.480042,699.188354 264.194092,699.184937 246.332016,698.847534 
	C245.471710,698.359314 245.187561,698.185669 244.903412,698.012085 
	C244.803116,692.018127 244.702820,686.024109 244.670776,679.574585 
z"/>
<path fill="#D45058" opacity="1.000000" stroke="none" 
	d="
M512.494263,494.977478 
	C515.344543,514.015991 525.207703,528.921753 538.301819,541.882202 
	C543.455811,546.983643 549.489319,551.196533 555.426880,555.915894 
	C554.793213,557.595276 553.855042,559.172852 552.423340,560.541260 
	C551.638855,560.121765 551.321350,560.067810 550.977295,560.170166 
	C550.206726,559.740295 549.436096,559.310425 548.341553,558.796570 
	C540.632812,551.601318 532.892456,544.818237 525.952393,537.296753 
	C517.027100,527.623779 511.011383,516.113770 508.128967,503.227234 
	C507.203857,499.091431 505.205841,497.204254 500.638245,496.625671 
	C498.164703,495.665344 496.320435,494.929291 494.466431,494.218536 
	C468.533081,484.276367 447.135651,468.586884 432.028381,444.583435 
	C433.323578,440.767548 435.326538,440.914459 437.734680,443.084076 
	C454.725433,468.393768 478.803986,483.640320 507.530029,492.334442 
	C509.194092,492.838043 510.684265,493.916077 512.494263,494.977478 
z"/>
<path fill="#93383F" opacity="1.000000" stroke="none" 
	d="
M366.425720,695.614319 
	C366.571503,693.971375 366.685425,692.713867 366.620880,690.644958 
	C366.301392,685.888672 366.160400,681.943787 366.486389,678.022217 
	C377.394867,678.295349 387.836365,678.545166 398.663574,678.811218 
	C407.653687,682.257874 416.258026,685.688293 424.862335,689.118774 
	C425.123230,692.030212 425.384125,694.941650 425.619812,698.265503 
	C420.136597,698.862488 414.679321,699.173523 409.220398,699.206360 
	C396.256012,699.284485 383.290619,699.197754 370.326050,699.260376 
	C367.947479,699.271851 365.862335,699.318909 366.425720,695.614319 
z"/>
<path fill="#7B4E56" opacity="1.000000" stroke="none" 
	d="
M287.200378,453.473450 
	C288.951874,453.782562 291.216034,454.098267 292.267517,455.396332 
	C296.994080,461.231049 301.283325,467.417389 305.911743,473.335022 
	C309.642517,478.105103 313.632843,482.672241 317.708618,487.579529 
	C307.326202,490.243286 298.382141,495.891357 289.372101,502.054321 
	C288.396179,485.976440 287.775452,469.954407 287.200378,453.473450 
z"/>
<path fill="#F4AD89" opacity="1.000000" stroke="none" 
	d="
M437.758698,442.709351 
	C435.326538,440.914459 433.323578,440.767548 431.731750,444.574036 
	C431.223419,444.935669 431.025848,444.947693 430.570984,444.711426 
	C428.523254,443.988098 426.732788,443.513062 424.521484,443.075378 
	C418.690735,443.772156 415.496460,441.390350 413.871857,436.208282 
	C412.853943,432.961334 411.188416,429.917419 409.813477,426.782379 
	C414.833313,422.513794 419.853149,418.245178 425.184753,413.913147 
	C429.268250,416.132904 433.284302,418.097504 436.761871,420.764313 
	C444.446777,426.657593 444.861725,433.866364 438.350098,440.992767 
	C438.041321,441.330719 437.966492,441.882446 437.758698,442.709351 
z"/>
<path fill="#E4866C" opacity="1.000000" stroke="none" 
	d="
M322.087769,191.277359 
	C330.260132,204.965073 344.576447,207.040222 358.876343,210.337677 
	C359.470215,215.702148 359.694427,220.586349 359.918610,225.470566 
	C359.473480,226.818695 359.028320,228.166824 358.468018,229.863678 
	C346.364929,221.742676 334.732605,213.956375 323.137390,206.115143 
	C322.358582,205.588486 321.860779,204.646286 321.167236,203.590668 
	C321.239716,200.610901 321.377197,197.937836 321.211609,194.982697 
	C321.277954,193.670273 321.647369,192.639893 322.087769,191.277359 
z"/>
<path fill="#4088AB" opacity="1.000000" stroke="none" 
	d="
M391.483887,356.503113 
	C390.608368,356.582031 389.468781,356.549500 389.186401,356.040955 
	C384.861115,348.251038 379.892639,340.704498 376.571503,332.495422 
	C370.422241,317.295807 365.354462,301.661835 359.613495,286.291992 
	C357.815552,281.478546 355.250305,276.955536 353.148651,272.249390 
	C352.524475,270.851746 352.283264,269.283081 351.866547,267.792816 
	C352.292542,267.564941 352.718536,267.337067 353.144562,267.109192 
	C353.937622,268.135864 354.932739,269.063171 355.493774,270.203979 
	C365.991516,291.550262 374.658386,313.580994 381.202057,336.493500 
	C382.585754,341.338562 386.485382,345.465118 389.560272,349.979431 
	C390.469330,352.080841 391.043915,354.125580 391.483887,356.503113 
z"/>
<path fill="#AA8B62" opacity="1.000000" stroke="none" 
	d="
M619.363037,551.115601 
	C610.645569,543.747986 608.773987,538.047180 612.532227,530.218750 
	C617.876648,534.699463 622.848999,539.273560 628.664490,544.623291 
	C624.885498,547.344482 622.302429,549.204468 619.363037,551.115601 
z"/>
<path fill="#FDFCFA" opacity="1.000000" stroke="none" 
	d="
M369.344574,210.449066 
	C371.937469,207.413406 374.768768,204.584305 377.235168,202.119843 
	C374.310272,198.551590 371.789307,195.999390 369.978668,193.016068 
	C369.228027,191.779251 369.481140,189.306122 370.275238,188.003143 
	C370.723663,187.267319 373.259827,187.471390 374.746674,187.778809 
	C376.972778,188.239075 379.103058,189.162994 380.918182,189.770584 
	C382.527893,187.353989 383.913666,185.273544 385.650940,183.231918 
	C386.139404,192.893188 377.097809,199.024033 376.701324,208.418198 
	C374.199432,209.204590 371.891235,209.930099 369.344574,210.449066 
z"/>
<path fill="#FDFCFA" opacity="1.000000" stroke="none" 
	d="
M391.931885,167.798645 
	C390.797821,163.360901 389.699005,158.466797 388.846863,153.293091 
	C390.522400,153.093628 391.951324,153.173782 393.859955,153.280853 
	C393.198761,158.192764 392.582947,162.767517 391.931885,167.798645 
z"/>
<path fill="#FDFCFA" opacity="1.000000" stroke="none" 
	d="
M360.176758,225.453430 
	C359.694427,220.586349 359.470215,215.702148 359.297302,210.341827 
	C360.386078,209.957611 361.423523,210.049515 362.739777,210.253571 
	C362.602173,212.527939 362.100739,214.678101 361.791687,216.855560 
	C361.435028,219.368546 361.248077,221.905640 360.968567,224.907761 
	C360.778076,225.400940 360.606506,225.418610 360.176758,225.453430 
z"/>
<path fill="#FDFCFA" opacity="1.000000" stroke="none" 
	d="
M390.214722,183.434875 
	C394.457458,181.691284 396.064880,179.118210 393.493896,174.511658 
	C395.366699,175.599991 397.118652,177.006104 399.590790,178.990250 
	C395.680389,180.162598 395.767090,186.484619 390.214722,183.434875 
z"/>
<path fill="#FDFCFA" opacity="1.000000" stroke="none" 
	d="
M389.376770,148.660767 
	C388.541351,145.529358 387.977112,142.105865 387.412659,138.366089 
	C388.709381,136.786591 390.006378,135.523392 391.595032,134.106323 
	C392.204956,134.480637 392.890594,135.382645 392.788483,135.482971 
	C389.060669,139.145920 390.408203,144.015717 389.376770,148.660767 
z"/>
<path fill="#FDFCFA" opacity="1.000000" stroke="none" 
	d="
M366.024994,229.449310 
	C364.919373,228.825470 363.789825,227.828415 362.530884,226.520844 
	C363.601379,227.165588 364.801208,228.120850 366.024994,229.449310 
z"/>
<path fill="#FDFCFA" opacity="1.000000" stroke="none" 
	d="
M393.283844,170.801376 
	C392.755707,170.507050 392.443481,170.042831 392.121765,169.288666 
	C392.574768,169.542969 393.037262,170.087219 393.283844,170.801376 
z"/>
<path fill="#E3D2C1" opacity="1.000000" stroke="none" 
	d="
M551.126587,560.374329 
	C551.321350,560.067810 551.638855,560.121765 552.083252,560.526978 
	C551.916504,560.674194 551.596252,560.626343 551.126587,560.374329 
z"/>
<path fill="#7B4E56" opacity="1.000000" stroke="none" 
	d="
M244.911133,698.317871 
	C245.187561,698.185669 245.471710,698.359314 245.869049,698.760620 
	C245.627762,698.866760 245.273315,698.745300 244.911133,698.317871 
z"/>
<path fill="#905A64" opacity="1.000000" stroke="none" 
	d="
M398.277832,678.794983 
	C387.836365,678.545166 377.394867,678.295349 366.043701,678.046143 
	C364.377136,676.579102 362.978729,675.120300 362.958374,673.642578 
	C362.564392,645.018677 362.337067,616.392639 362.057983,587.767151 
	C362.027161,584.608765 361.890045,581.451416 361.802246,578.293579 
	C363.205261,575.808960 364.608276,573.324341 366.067322,570.498657 
	C369.854218,571.277710 373.779907,571.976379 377.280426,573.594727 
	C389.188751,579.100159 400.947083,584.929932 412.990601,591.308655 
	C409.731689,620.533264 406.244843,649.085022 402.770752,677.532532 
	C401.097260,678.002747 399.687561,678.398865 398.277832,678.794983 
z"/>
<path fill="#FDFCFA" opacity="1.000000" stroke="none" 
	d="
M398.663574,678.811218 
	C399.687561,678.398865 401.097260,678.002747 402.770752,677.532532 
	C406.244843,649.085022 409.731689,620.533264 413.280579,591.551392 
	C421.593292,592.710449 429.843933,594.299438 438.724792,596.009888 
	C436.288208,604.964417 434.262421,614.499878 431.090485,623.637512 
	C424.160522,643.601074 423.930969,663.996887 425.830627,684.651794 
	C425.948273,685.931152 425.583740,687.254822 425.152954,688.838379 
	C416.258026,685.688293 407.653687,682.257874 398.663574,678.811218 
z"/>
<path fill="#FDFCFA" opacity="1.000000" stroke="none" 
	d="
M409.492676,426.878448 
	C411.188416,429.917419 412.853943,432.961334 413.871857,436.208282 
	C415.496460,441.390350 418.690735,443.772156 424.525757,443.539734 
	C424.873627,461.953003 424.796356,479.939240 424.719116,497.925507 
	C418.486847,497.276245 412.254608,496.626984 405.620178,495.997070 
	C401.339264,480.435577 397.454193,464.856262 393.583862,449.273315 
	C390.989624,438.828156 388.416199,428.377838 385.746399,417.528870 
	C387.415924,416.736633 389.172516,416.345367 391.308746,415.498840 
	C392.120331,414.999115 392.552246,414.954651 392.984192,414.910187 
	C396.695404,419.917694 400.406586,424.925171 404.274689,430.144348 
	C406.197388,428.899841 407.684631,427.937164 409.492676,426.878448 
z"/>
<path fill="#FDFCFA" opacity="1.000000" stroke="none" 
	d="
M430.828278,444.959686 
	C431.025848,444.947693 431.223419,444.935669 431.717590,444.933075 
	C447.135651,468.586884 468.533081,484.276367 494.466431,494.218536 
	C496.320435,494.929291 498.164703,495.665344 500.278931,496.680969 
	C487.547760,497.653809 474.557678,498.636169 461.552399,498.916901 
	C452.000183,499.123108 442.428070,498.410248 432.174072,498.093811 
	C431.306458,498.077637 431.129639,498.074615 430.910278,498.083679 
	C430.867737,498.095703 430.784546,498.065491 430.840149,497.778687 
	C430.830139,497.308472 430.764526,497.125061 430.723846,496.477844 
	C430.775299,478.995911 430.801788,461.977814 430.828278,444.959686 
z"/>
<path fill="#D74C51" opacity="1.000000" stroke="none" 
	d="
M430.570984,444.711426 
	C430.801788,461.977814 430.775299,478.995911 430.578369,496.592896 
	C430.533447,497.469666 430.658997,497.767578 430.784546,498.065491 
	C430.784546,498.065491 430.867737,498.095703 430.832489,498.540649 
	C430.844391,522.333252 430.891510,545.680969 430.938629,569.028625 
	C429.626678,570.331909 428.314728,571.635193 427.002808,572.938477 
	C426.305389,571.305115 425.010620,569.675415 425.000549,568.037842 
	C424.859253,544.978943 424.892761,521.918945 424.801453,498.392365 
	C424.796356,479.939240 424.873627,461.953003 424.946594,443.502380 
	C426.732788,443.513062 428.523254,443.988098 430.570984,444.711426 
z"/>
<path fill="#E4D2C2" opacity="1.000000" stroke="none" 
	d="
M431.247742,568.739319 
	C430.891510,545.680969 430.844391,522.333252 430.875061,498.528625 
	C431.129639,498.074615 431.306458,498.077637 431.742920,498.137268 
	C432.001709,519.809387 432.011353,541.424866 431.980804,563.040405 
	C431.978241,564.843811 431.704529,566.646790 431.247742,568.739319 
z"/>
<path fill="#4088AB" opacity="1.000000" stroke="none" 
	d="
M392.937195,414.553802 
	C392.552246,414.954651 392.120331,414.999115 391.370728,415.117096 
	C380.730164,401.610229 370.254913,388.142395 360.122284,374.421448 
	C347.008392,356.663391 334.911285,338.234009 325.905731,317.989990 
	C320.386169,305.582306 315.245850,293.004639 310.053986,280.454163 
	C309.414520,278.908325 309.509644,277.058594 309.264404,275.349670 
	C309.812866,275.205414 310.361359,275.061127 310.909851,274.916870 
	C312.547211,279.251770 313.871613,283.737488 315.875458,287.895813 
	C325.159058,307.160828 333.248383,327.186218 344.406982,345.313171 
	C356.688843,365.264771 371.907257,383.402832 385.718567,402.423767 
	C388.409729,406.130035 390.514801,410.261871 392.937195,414.553802 
z"/>
<path fill="#7B4E56" opacity="1.000000" stroke="none" 
	d="
M581.602417,512.913086 
	C581.953003,511.654572 582.063293,510.213959 582.698181,509.924774 
	C584.526428,509.091949 586.566467,508.724030 588.523315,508.173492 
	C588.129578,510.113281 588.312500,512.523376 587.205139,513.881165 
	C585.597717,515.851807 583.052734,517.108948 581.602417,512.913086 
z"/>
<path fill="#93383F" opacity="1.000000" stroke="none" 
	d="
M385.666138,145.094345 
	C387.932098,147.752487 386.817017,149.114029 384.100250,149.491638 
	C380.546692,149.985535 376.962708,150.260269 373.162811,150.042557 
	C376.164917,146.047333 380.633789,145.366791 385.666138,145.094345 
z"/>
<path fill="#7B4E56" opacity="1.000000" stroke="none" 
	d="
M383.143280,161.146790 
	C381.831696,163.044724 380.497803,164.534348 379.163910,166.023956 
	C378.398041,164.208130 377.216980,162.434113 377.028259,160.560150 
	C376.921844,159.503616 378.450256,158.282425 379.242218,157.135406 
	C380.535126,158.336426 381.828033,159.537445 383.143280,161.146790 
z"/>
<path fill="#FDFCFA" opacity="1.000000" stroke="none" 
	d="
M361.567749,578.495239 
	C361.890045,581.451416 362.027161,584.608765 362.057983,587.767151 
	C362.337067,616.392639 362.564392,645.018677 362.958374,673.642578 
	C362.978729,675.120300 364.377136,676.579102 365.576660,678.022827 
	C366.160400,681.943787 366.301392,685.888672 366.414062,690.210693 
	C362.884369,684.026184 356.817139,681.230164 350.188110,678.698181 
	C338.213898,674.124634 327.845428,667.323608 326.796875,653.027710 
	C326.385406,647.417847 327.517151,641.417908 329.199951,635.983826 
	C334.029999,620.387085 343.914795,607.385803 352.128235,593.539124 
	C355.097687,588.533081 358.259308,583.640991 361.567749,578.495239 
z"/>
<path fill="#F4AD89" opacity="1.000000" stroke="none" 
	d="
M430.840149,497.778687 
	C430.658997,497.767578 430.533447,497.469666 430.553406,497.056702 
	C430.764526,497.125061 430.830139,497.308472 430.840149,497.778687 
z"/>
</svg>