<svg version="1.1" id="Layer_1" xmlns="http://www.w3.org/2000/svg" xmlns:xlink="http://www.w3.org/1999/xlink" x="0px" y="0px"
	 width="100%" viewBox="0 0 976 1024" enable-background="new 0 0 976 1024" xml:space="preserve">
<path fill="#000000" opacity="1.000000" stroke="none" 
	d="
M285.861511,532.046082 
	C283.192444,525.882019 281.789703,519.728088 280.031494,513.695190 
	C278.803375,509.481110 276.414490,508.862000 272.441437,510.024719 
	C244.446213,518.217651 217.566147,511.409393 200.645325,487.043884 
	C190.578979,472.548615 184.544647,456.631531 179.675919,439.930695 
	C176.525162,429.122925 173.695663,418.211639 170.864059,407.345184 
	C168.897186,399.797150 167.897766,391.816986 166.712112,383.986481 
	C165.867935,378.411133 165.055511,372.878296 165.470139,367.226318 
	C166.250992,356.582489 168.861023,346.472870 172.799088,336.491028 
	C183.314758,309.836945 199.763748,286.571960 214.034180,262.036560 
	C225.346466,242.587173 240.488708,226.256287 254.318893,208.820099 
	C263.010132,197.862747 271.622406,186.991241 282.226959,177.686417 
	C294.977661,166.498474 309.888672,160.133575 325.904236,155.711655 
	C328.626007,154.960175 331.476654,154.541641 334.070038,153.484329 
	C341.760864,150.348816 349.096924,153.096008 356.482025,154.624802 
	C357.894196,154.917160 359.249298,155.724091 360.774597,155.629517 
	C374.140411,154.800934 386.485413,159.213928 398.393585,164.151489 
	C415.561432,171.269867 433.006989,178.109146 448.066772,189.427734 
	C454.838379,194.517136 461.739410,199.534149 467.911316,205.301407 
	C482.259979,218.709213 499.575409,222.025803 518.200806,220.741104 
	C523.839355,220.352188 528.402039,216.271744 531.992493,212.238098 
	C540.295044,202.910660 550.813843,196.411255 560.349548,188.665314 
	C578.709045,173.751572 599.688965,163.447037 622.069153,156.735046 
	C640.064941,151.337967 659.000610,149.506226 677.306396,156.112900 
	C689.405396,160.479538 700.029175,167.688416 709.776672,176.268936 
	C730.033691,194.100800 745.976196,215.455627 761.755371,237.134750 
	C773.510254,253.284958 785.773926,269.070282 795.184998,286.710663 
	C805.487610,306.022247 816.419006,325.092926 822.014343,346.575378 
	C827.296448,366.855408 828.816956,387.525635 827.004211,408.202301 
	C825.989990,419.771423 822.299133,431.145111 818.493408,442.278931 
	C814.843689,452.956085 811.338074,463.696320 806.159607,473.749298 
	C800.044983,485.619690 795.347778,498.550537 782.970825,505.961884 
	C777.708801,509.112793 771.634949,509.733307 765.916748,510.947571 
	C758.536438,512.514832 750.918213,513.639038 743.207764,512.930542 
	C736.949585,512.355408 730.738708,511.649384 724.721863,509.764496 
	C719.154358,508.020416 717.296936,509.509949 715.368286,515.049988 
	C709.054810,533.184448 705.454407,552.212524 697.364990,569.746033 
	C696.153748,572.371338 696.337646,574.477966 698.202881,576.610352 
	C705.783203,585.276428 707.715881,595.981812 709.372803,606.889832 
	C713.020996,630.906555 710.219238,655.045471 711.032715,679.112732 
	C711.630798,696.808899 707.427612,713.404724 697.653503,728.197693 
	C691.678894,737.240173 683.748962,744.594971 674.916382,751.025391 
	C652.968750,767.004089 627.926575,776.348328 602.678040,785.308716 
	C601.581604,785.697876 600.473877,786.055359 599.378784,786.448120 
	C590.606201,789.594116 590.631714,789.947510 594.974854,797.921326 
	C604.155273,814.776184 607.508667,832.922546 605.947815,851.962280 
	C604.723267,866.899963 601.170837,881.244812 592.811951,893.911316 
	C583.421143,908.141418 569.921997,917.979553 555.760742,926.884705 
	C547.170837,932.286255 538.240051,937.331787 528.333069,939.842834 
	C520.696106,941.778564 513.100037,944.089417 505.067932,944.381836 
	C491.352997,944.881104 477.696289,944.400208 464.900360,939.135010 
	C445.692078,931.231323 429.103027,919.563599 415.983765,903.145569 
	C407.895569,893.023682 401.848297,881.948730 397.471802,869.778198 
	C393.373260,858.380798 391.796570,846.482056 391.938202,834.681091 
	C392.111816,820.215576 393.769592,805.706055 400.023102,792.171997 
	C402.415283,786.994751 401.168457,784.848633 395.239929,783.632996 
	C387.385834,782.022461 379.798157,779.540527 372.243439,777.035583 
	C342.974731,767.330872 317.482910,751.549011 296.621002,728.683533 
	C286.419922,717.502686 283.039307,703.816223 281.441254,689.041748 
	C280.041687,676.101807 279.283569,663.177734 280.065735,650.306946 
	C280.844666,637.488831 282.005463,624.543030 286.035187,612.182007 
	C288.054260,605.988647 288.331726,599.545227 289.511780,593.236572 
	C290.827026,586.204895 293.147186,579.488708 295.797272,572.887573 
	C296.786255,570.424133 296.850769,568.058716 296.286438,565.583130 
	C294.074005,555.878174 291.025757,546.441101 287.269592,537.223145 
	C286.649658,535.701721 286.397675,534.030396 285.861511,532.046082 
M613.551331,346.870453 
	C610.581421,338.944244 607.555725,331.038361 604.654114,323.087219 
	C599.893250,310.041412 594.257568,297.391968 584.859070,287.002716 
	C571.129944,271.826355 552.371155,266.014221 533.361450,261.641479 
	C524.582642,259.622131 515.461060,256.989075 506.096405,259.252686 
	C504.126862,259.728760 502.260468,258.746399 500.363434,257.999084 
	C495.605560,256.124725 490.756958,255.288223 486.101318,258.487793 
	C484.307465,259.720612 482.086243,259.714264 480.295288,259.180908 
	C472.266022,256.789825 464.833496,259.852264 457.448456,261.775177 
	C447.019623,264.490662 436.979156,268.462799 427.846405,274.438263 
	C418.938690,280.266479 409.730774,285.823944 402.971161,294.189911 
	C393.768707,305.579254 388.372681,319.128571 383.304138,332.648468 
	C377.775391,347.395935 373.209198,362.501953 368.092102,377.406616 
	C361.504761,396.593353 353.779449,415.235229 343.621796,432.912994 
	C335.072693,447.791260 327.029999,462.893677 314.743500,475.178833 
	C311.665070,478.256866 310.141876,481.978973 310.347992,486.452362 
	C310.611481,492.171844 312.621094,497.434265 314.200623,502.822388 
	C317.795807,515.086304 321.506500,527.279297 327.253387,538.790344 
	C333.053925,550.408813 339.350250,561.648926 347.324646,571.967529 
	C353.367279,579.786438 360.948395,586.067444 367.497925,593.285278 
	C376.327209,603.015503 385.621552,611.957947 397.097534,618.228455 
	C417.644409,629.455322 434.989899,646.956421 460.144867,649.322083 
	C468.193329,650.078918 475.987793,653.679016 484.158783,654.992249 
	C498.914856,657.363770 513.318237,655.187317 527.622437,651.798889 
	C529.512329,651.351257 531.168152,649.911377 533.305237,650.398621 
	C537.895386,651.445251 542.198486,649.895386 546.433899,648.650574 
	C555.121521,646.097290 562.830627,641.468323 570.467957,636.706421 
	C594.087524,621.979736 616.707275,606.005798 636.286438,585.996277 
	C639.807861,582.397400 642.088623,577.936523 645.754089,574.525391 
	C650.653992,569.965393 654.665344,564.599060 658.086426,558.916565 
	C670.443298,538.392151 678.214661,515.972290 684.481201,492.998260 
	C685.421814,489.549957 685.870850,485.712219 683.432556,482.413391 
	C678.595886,475.869720 673.682617,469.382294 668.884338,462.810791 
	C661.148315,452.216003 652.892029,441.986450 646.916504,430.181244 
	C642.194763,420.852875 637.481934,411.608124 634.137085,401.600067 
	C630.731995,391.411682 625.739624,381.765350 621.872498,371.716125 
	C618.832947,363.817291 616.448059,355.666534 613.551331,346.870453 
M564.656921,857.284546 
	C566.701294,853.609863 567.462036,849.469299 568.917786,845.583008 
	C571.289673,839.251099 571.143799,833.128174 568.985168,826.640015 
	C565.714844,816.810364 561.564819,807.400391 556.185303,798.638794 
	C550.991638,790.179932 544.510742,782.769165 534.201660,780.200073 
	C529.229797,778.961121 527.418213,776.020630 527.518066,770.770447 
	C527.625488,765.127197 531.060730,763.027527 535.181396,760.878540 
	C543.402405,756.591248 552.572388,755.389038 561.289917,752.747742 
	C575.574524,748.419861 590.201172,745.163940 604.343323,740.437683 
	C621.405762,734.735535 637.559692,726.803711 653.131226,717.734436 
	C662.317200,712.384277 671.348633,706.891418 673.242554,695.187317 
	C674.507629,687.369019 672.905579,679.524292 674.987061,671.409912 
	C676.694275,664.754333 675.266724,656.892151 675.100830,649.567261 
	C675.066833,648.069458 675.470032,646.323120 674.847168,645.117065 
	C671.486877,638.610046 672.608826,631.940063 673.603760,625.205444 
	C674.497803,619.153259 672.987366,613.324707 671.396057,607.588257 
	C670.374451,603.905518 667.349976,602.907776 664.024353,604.813782 
	C661.127625,606.473999 658.555725,608.545227 656.186768,610.941101 
	C642.276062,625.009949 628.934509,639.750061 611.715759,650.043701 
	C603.164856,655.155518 594.320374,659.796448 585.931702,665.155945 
	C563.059387,679.768799 537.542725,686.491333 511.110229,689.987610 
	C497.472015,691.791565 483.579834,690.275818 470.104095,687.914978 
	C451.210449,684.604980 433.665771,676.941833 416.237366,668.983337 
	C385.327789,654.869019 359.652679,633.758118 335.585297,610.340576 
	C334.271667,609.062439 333.007111,607.732910 331.672913,606.477112 
	C330.301239,605.186035 328.817688,604.082520 326.768219,604.910767 
	C324.751953,605.725647 324.728851,607.493469 324.272034,609.346558 
	C322.756958,615.492798 323.849182,622.294678 322.176300,627.811890 
	C318.554352,639.757080 322.157684,651.770447 319.454498,663.667053 
	C317.654785,671.587646 319.006500,680.256287 319.183746,688.585083 
	C319.363800,697.047546 323.031616,704.274353 329.311188,709.526184 
	C339.647308,718.170837 350.824768,725.713928 362.853058,731.937378 
	C387.957733,744.926453 414.883942,752.879639 441.881470,760.614014 
	C447.053864,762.095886 451.974518,764.022339 456.632111,766.622559 
	C463.405273,770.403809 463.583435,775.333252 457.163849,779.878967 
	C449.107300,785.583923 441.433655,791.710388 436.032501,800.136169 
	C429.402466,810.479065 424.854797,821.242554 426.028442,834.183716 
	C426.602814,840.517090 425.815674,846.948730 427.827637,853.223145 
	C432.847443,868.877625 441.198822,882.084900 454.880402,891.662231 
	C466.151276,899.552124 477.879089,905.616760 491.933655,907.657593 
	C502.426208,909.181274 512.415100,907.861450 521.705994,904.559265 
	C543.806580,896.704468 556.622009,879.472778 564.656921,857.284546 
M633.314026,300.196014 
	C634.489258,302.586823 635.825012,304.913147 636.815125,307.378296 
	C647.333862,333.567108 657.625549,359.848480 668.322205,385.964081 
	C680.462463,415.604034 696.496765,442.786224 719.698425,465.323425 
	C725.999146,471.443695 733.204285,476.139740 741.131714,479.700043 
	C750.242981,483.792023 756.714355,481.819672 762.168457,473.575287 
	C770.291992,461.295685 775.688843,447.733459 780.851746,434.030945 
	C783.406006,427.252045 785.349060,420.370483 787.190002,413.372742 
	C790.162476,402.073456 794.677063,391.145752 792.754944,379.058929 
	C792.420044,376.953125 792.239502,374.564240 792.891724,372.607452 
	C795.029968,366.192139 792.693298,360.304779 790.491943,354.775543 
	C783.099548,336.208191 772.861755,319.004303 763.492554,301.415100 
	C755.444031,286.305206 745.510071,272.328400 734.848389,258.846466 
	C719.744324,239.747086 706.653748,218.992462 687.099731,203.700684 
	C678.521729,196.992447 669.159119,191.893524 658.541870,190.293076 
	C653.380920,189.515091 647.616150,191.064835 642.309753,191.936890 
	C628.327393,194.234756 615.242554,199.520767 602.761658,206.415207 
	C589.194702,213.909622 576.552612,222.849792 563.311096,230.844284 
	C559.579346,233.097336 559.841064,235.232040 563.586304,237.392441 
	C565.746460,238.638565 568.013672,239.704056 570.258545,240.797699 
	C588.105042,249.491882 605.494995,258.760773 617.990173,274.992706 
	C623.885071,282.650543 629.239502,290.574249 633.314026,300.196014 
M424.429840,219.150589 
	C399.302948,202.879425 372.558472,191.801819 341.857452,193.325821 
	C338.718628,193.481613 335.411407,192.155396 332.447235,193.477478 
	C325.163971,196.725952 317.485046,199.533234 311.367279,204.704117 
	C300.799988,213.635880 290.198578,222.421127 280.903046,232.947937 
	C268.291321,247.230255 257.883759,262.996826 247.292572,278.598053 
	C233.101913,299.501434 220.926208,321.713928 208.415222,343.679321 
	C203.392975,352.496826 200.022522,361.594910 200.873169,372.103638 
	C201.653534,381.744141 204.453064,390.906708 206.893341,400.084229 
	C210.511627,413.692169 214.776611,427.203156 219.897034,440.313812 
	C224.283417,451.545074 229.417709,462.617279 238.536133,471.216980 
	C246.001724,478.257965 250.969818,479.028351 259.573212,473.176300 
	C270.680389,465.621216 281.738037,458.160828 289.864624,446.904480 
	C294.994446,439.798981 301.048645,433.256226 305.753693,425.847137 
	C313.700653,413.333008 319.397797,399.617950 325.213196,386.028107 
	C336.961700,358.573303 346.129822,330.050293 359.845062,303.391357 
	C363.854034,295.598907 368.513275,288.241394 374.331360,281.990784 
	C392.009644,262.998230 412.048035,246.971237 436.098663,236.490250 
	C441.593964,234.095474 441.877991,230.572601 436.836945,226.999237 
	C433.046783,224.312622 428.984802,222.009415 424.429840,219.150589 
z"/>
<path fill="#000000" opacity="1.000000" stroke="none" 
	d="
M533.260132,468.024719 
	C539.164429,471.190033 544.387085,474.667053 548.561890,479.584991 
	C555.092712,487.278381 557.048523,495.851257 553.999695,505.540253 
	C553.456604,507.266144 553.393250,509.142517 552.854858,510.870422 
	C547.880554,526.835449 537.939758,538.958984 523.697266,547.457031 
	C517.283386,551.283936 512.398865,557.226624 505.151978,559.948120 
	C501.942291,561.153503 499.368286,561.467957 496.182861,560.211426 
	C483.931030,555.378662 474.262085,546.496948 463.288940,539.673157 
	C451.536285,532.364624 445.919220,521.308167 443.315674,508.432648 
	C441.795685,500.915863 441.874054,493.087494 443.202942,485.583496 
	C445.411377,473.112946 455.157776,468.810791 466.059631,465.566315 
	C475.421478,462.780090 484.809845,464.263397 494.179993,463.897034 
	C507.270721,463.385223 520.259277,464.290314 533.260132,468.024719 
z"/>
<path fill="#000000" opacity="1.000000" stroke="none" 
	d="
M469.857300,822.111328 
	C471.960205,816.901611 475.963776,813.335632 478.247742,808.680054 
	C478.578094,808.006592 479.390381,807.172791 480.041656,807.115295 
	C486.150238,806.575928 492.553345,804.330627 498.349701,806.548218 
	C512.237427,811.861267 522.781372,821.479919 528.814697,835.135803 
	C533.212036,845.088562 529.435364,853.627136 522.491150,861.465271 
	C512.425842,872.826172 493.985626,872.621216 483.898712,867.646423 
	C470.555328,861.065613 463.160217,841.735779 467.897766,827.629456 
	C468.478485,825.900452 469.095367,824.183533 469.857300,822.111328 
z"/>
<path fill="#000000" opacity="1.000000" stroke="none" 
	d="
M474.969482,724.701660 
	C477.095581,718.445496 480.835907,715.073364 487.314087,714.351013 
	C491.522247,713.881714 495.778717,713.237915 499.943939,711.955933 
	C503.876862,710.745422 507.026855,713.461060 507.240875,717.924866 
	C507.694824,727.393555 507.013214,736.714966 505.124939,746.129883 
	C503.928864,752.093506 502.397552,758.210449 502.369904,764.424744 
	C502.317505,776.195984 502.354767,787.967590 502.354767,799.943481 
	C498.318756,800.433960 495.412231,798.692810 492.764160,797.014160 
	C490.448730,795.546509 488.965912,795.281799 486.617920,797.010681 
	C482.898102,799.749878 480.282959,798.346619 479.994843,793.829224 
	C479.577545,787.286987 481.269897,780.541687 477.895050,774.266296 
	C477.456879,773.451599 478.231354,772.036499 478.294647,770.891235 
	C478.566223,765.976501 479.808716,760.970398 476.739166,756.380920 
	C475.379700,754.348206 476.524750,752.101379 476.786285,750.059814 
	C477.872925,741.576904 473.587921,733.556519 474.969482,724.701660 
z"/>
</svg>